<svg id="fishIcon" xmlns="http://www.w3.org/2000/svg" viewBox="0 0 169.8 191.3"><defs><style>.cls-1{fill:none;stroke:#00a651;stroke-miterlimit:10;stroke-width:16px;}.cls-2{fill:#555;}.cls-3{fill:#fff;}</style></defs><title>fishIcon</title><ellipse id="green_circle" data-name="green circle" class="cls-1" cx="90.4" cy="82.5" rx="71.4" ry="74.5"/><path id="fish" class="cls-2" d="M8.4,37.2S40.7,11.6,89,40.4c0,0,36,4.4,52,46.8,0,0-5.4-5.6-18.5-7.1,0,0,16.8,23.1,5.9,63.6s-45.9,64.8-88.7,52.5c0,0,10.1-.3,20.5-9.6,0,0-14.1-13.8-16.1-29.1,0,0,43.9,39.9,53.8,14.3s2.7-68.8-31.3-77.4c0,0,3.2,8.6,1,11.3S53,99.1,48.6,86c0,0-36.2-14.1-42.2-39.2,0,0,10.1,3,12.6,2C19,48.8,8.4,41.9,8.4,37.2Z" transform="translate(-6.4 -8)"/><circle id="fish_eyes" data-name="fish eyes" class="cls-3" cx="37.6" cy="33.7" r="3.8"/><path id="fish_white" data-name="fish white" class="cls-3" d="M63.9,42.9s3.7,24.4-10.4,37.9c0,0,55.3,9.4,53.5,71.5h2.2s7.9-41.6-27.8-67Z" transform="translate(-6.4 -8)"/></svg>