<?xml version="1.0" encoding="utf-8"?>
<!-- Generator: Adobe Illustrator 23.0.1, SVG Export Plug-In . SVG Version: 6.00 Build 0)  -->
<svg version="1.1" id="logo" xmlns="http://www.w3.org/2000/svg" xmlns:xlink="http://www.w3.org/1999/xlink" x="0px" y="0px"
	 viewBox="0 0 202.6 179.2" style="enable-background:new 0 0 202.6 179.2;" xml:space="preserve">
<style type="text/css">
	.st0{fill:#999999;}
	.st1{fill:none;}
	.st2{fill:none;stroke:#999999;stroke-width:4.4111;stroke-miterlimit:10;}
	.st3{fill:#999999;stroke:#303030;stroke-width:6;stroke-miterlimit:10;}
	.st4{fill:#999999;stroke:#303030;stroke-miterlimit:10;}
	.st5{fill:#666665;}
	.st6{fill:#999999;stroke:#666665;stroke-width:2;stroke-linecap:round;stroke-linejoin:round;stroke-miterlimit:10;}
	.st7{fill:#999999;stroke:#666665;stroke-width:2;stroke-miterlimit:10;}
	.st8{fill:#303030;}
	.st9{fill:#999999;stroke:#666665;stroke-width:2.1;stroke-miterlimit:10;}
	.st10{fill:#999999;stroke:#D42027;stroke-width:2;stroke-linejoin:round;stroke-miterlimit:10;}
	.st11{fill:#999999;stroke:#D42027;stroke-linejoin:round;stroke-miterlimit:10;}
	.st12{fill:#999999;stroke:#D42027;stroke-width:2;stroke-linecap:round;stroke-linejoin:round;stroke-miterlimit:10;}
	.st13{fill:#999999;stroke:#D42027;stroke-miterlimit:10;}
</style>
<g id="XMLID_257_">
	<g id="XMLID_222_">
		<path id="XMLID_225_" class="st0" d="M80.5,63.8h2.2l-8.5-17.7l-8.5,17.7H68l-2.2,4.7H68l-2.2,4.7h7.4v4.1c0,0.6,0.5,1.1,1.1,1.1
			l0,0c0.6,0,1.1-0.5,1.1-1.1v-4.1h7.4l-2.2-4.7h2.2L80.5,63.8z"/>
		<path id="XMLID_224_" class="st0" d="M75.3,73.2h7.4l-2.2-4.7h2.2l-2.2-4.7h2.2l-8.5-17.7v32.2l0,0c0.6,0,1.1-0.5,1.1-1.1V73.2z"
			/>
	</g>
	<path id="XMLID_43_" class="st0" d="M158.3,96.1c0,0-10.3-1.2-14.2,7.6c0,0-1.5,6.1-5.5,8c0,0,12.6-3.5,16.7-6.3
		c0,0,4.6-5.2,6.3-6.5"/>
	<g id="XMLID_217_">
		<path id="XMLID_220_" class="st0" d="M166.8,59.6h3.3l-12.5-26.2l-12.5,26.2h3.3l-3.3,6.9h3.3l-3.3,6.9H156v6
			c0,0.9,0.7,1.6,1.6,1.6l0,0c0.9,0,1.6-0.7,1.6-1.6v-6h10.9l-3.3-6.9h3.3L166.8,59.6z"/>
		<path id="XMLID_219_" class="st0" d="M159.2,73.4h10.9l-3.3-6.9h3.3l-3.3-6.9h3.3l-12.5-26.2V81l0,0c0.9,0,1.6-0.7,1.6-1.6V73.4z"
			/>
	</g>
	<g id="XMLID_212_">
		<path id="XMLID_216_" class="st0" d="M139.7,61.6h1.9l-7.3-15.3L127,61.6h1.9l-1.9,4h1.9l-1.9,4h6.4v3.5c0,0.5,0.4,0.9,0.9,0.9
			l0,0c0.5,0,0.9-0.4,0.9-0.9v-3.5h6.4l-1.9-4h1.9L139.7,61.6z"/>
		<path id="XMLID_215_" class="st0" d="M135.3,69.7h6.4l-1.9-4h1.9l-1.9-4h1.9l-7.3-15.3v27.8l0,0c0.5,0,0.9-0.4,0.9-0.9V69.7z"/>
	</g>
	<g id="XMLID_209_">
		<path id="XMLID_211_" class="st0" d="M57.4,60.5h2.8L49.5,38.9L38.8,60.5h2.8l-2.8,5.7h2.8l-2.8,5.7h9.4v4.9
			c0,0.7,0.6,1.3,1.3,1.3l0,0c0.7,0,1.3-0.6,1.3-1.3v-4.9h9.4l-2.8-5.7h2.8L57.4,60.5z"/>
		<path id="XMLID_210_" class="st0" d="M50.8,71.9h9.4l-2.8-5.7h2.8l-2.8-5.7h2.8L49.5,38.9v39.3l0,0c0.7,0,1.3-0.6,1.3-1.3V71.9z"
			/>
	</g>
	<path id="XMLID_206_" class="st1" d="M70.3,80.6"/>
	<circle id="XMLID_205_" class="st2" cx="104.7" cy="78.7" r="76.5"/>
	<g id="XMLID_134_">
		<path id="XMLID_135_" class="st0" d="M27.5,119.7l-0.9-1.9l-11.7,5.7l-0.9-1.8l11.7-5.7l-0.9-1.9l1.9-0.9l2.7,5.6L27.5,119.7z"/>
		<path id="XMLID_149_" class="st0" d="M33.1,124.9L20,132.7l-1-1.7l6.1-3.7l-1.1-1.8l-6.1,3.7l-1-1.7l13.1-7.8l1,1.7l-5.1,3
			l1.1,1.8l5.1-3L33.1,124.9z"/>
		<path id="XMLID_153_" class="st0" d="M26.6,136l-1.2-1.6l-3.1,1.7l-1.1-1.6l13.7-7l1.2,1.7l-11,10.8l-1.2-1.7L26.6,136z
			 M28.2,134.4l4.1-3.7l0,0l-4.8,2.7L28.2,134.4z"/>
		<path id="XMLID_156_" class="st0" d="M43.4,137.9l-11.4,10l-1.3-1.5l7-6.2l-7.9,5.2l-0.9-1.1l6.2-7.1l0,0l-7,6.2l-1.3-1.5l11.4-10
			l1.8,2.1l-6,7l0,0l7.7-5L43.4,137.9z"/>
		<path id="XMLID_180_" class="st0" d="M44.3,141.8l-2.6,2.7l1.5,1.4l-1.5,1.6l-1.5-1.4l-3.4,3.6l2.2,2.1l-1.5,1.6l-3.7-3.5l10.5-11
			l3.6,3.4l-1.5,1.6L44.3,141.8z"/>
		<path id="XMLID_182_" class="st0" d="M48.9,148.6l0.4-0.5c0.7-0.8,0.7-1.5,0.3-1.9c-0.4-0.3-1-0.2-1.5,0.3c-0.4,0.5-0.7,1-0.7,1.8
			l-0.4,3.7c-0.2,1.5-0.3,2.4-1.4,3.8c-1.4,1.7-3.2,1.8-4.5,0.7c-1.3-1-1.5-2.8-0.1-4.5l1-1.2l1.6,1.3l-0.9,1.1
			c-0.6,0.7-0.6,1.3-0.2,1.7c0.4,0.3,1,0.2,1.6-0.5c0.5-0.6,0.7-1.2,0.8-2l0.2-2.9c0.2-2,0.2-2.6,1.5-4.3c1.3-1.6,3.1-1.8,4.4-0.7
			c1.3,1.1,1.4,2.9,0.1,4.5l-0.7,0.8L48.9,148.6z"/>
		<path id="XMLID_199_" class="st0" d="M52.3,164.4l1.6-6.2c-0.2-0.1-0.5-0.3-0.6-0.3l-3.3,5.2l-1.7-1.1l8.1-12.8l2.9,1.8
			c1.6,1,1.4,3.2,0.1,5.2c-1.2,1.9-2.6,2.7-3.8,2.8l-1.7,6.6L52.3,164.4z M54.6,155.9l0.5,0.3c1.1,0.7,1.5,0.7,2.7-1.2
			c0.7-1,1-1.9,0.3-2.4l-1.1-0.7L54.6,155.9z"/>
		<path id="XMLID_203_" class="st0" d="M57.5,167.3l-1.8-1L63,153l1.8,1L57.5,167.3z"/>
		<path id="XMLID_218_" class="st0" d="M63.5,170.3l-2-0.9l4.1-14.8l2,0.9l-3.4,10.8l0,0l6.1-9.6l2,0.9L63.5,170.3z"/>
		<path id="XMLID_227_" class="st0" d="M74.3,160.6l-1.3,3.5l1.9,0.7l-0.7,2l-1.9-0.7l-1.7,4.6l2.9,1.1l-0.7,2l-4.8-1.8l5.2-14.3
			l4.6,1.7l-0.7,2L74.3,160.6z"/>
		<path id="XMLID_229_" class="st0" d="M79.3,175.8l-0.2-6.4c-0.3-0.1-0.5-0.2-0.6-0.2l-1.6,5.9l-1.9-0.5l4-14.6l3.3,0.9
			c1.9,0.5,2.3,2.6,1.6,5c-0.6,2.2-1.7,3.4-2.8,3.8l0.3,6.8L79.3,175.8z M79.1,167l0.6,0.2c1.3,0.4,1.7,0.2,2.3-1.9
			c0.3-1.2,0.4-2.1-0.4-2.4l-1.3-0.3L79.1,167z"/>
		<path id="XMLID_232_" class="st0" d="M91.2,174.6l-1.9-0.3l-0.9,3.4l-1.9-0.3l4.5-14.7l2,0.3l0.1,15.4l-2-0.3L91.2,174.6z
			 M91.2,172.4l0.2-5.5l0,0l-1.4,5.3L91.2,172.4z"/>
		<path id="XMLID_235_" class="st0" d="M102.4,163.9l-1,15.2l-2-0.1l-1.4-8.8l0,0l-0.6,8.7l-2-0.1l1-15.2l2.1,0.1l1.3,8.5l0,0
			l0.6-8.4L102.4,163.9z"/>
		<path id="XMLID_237_" class="st0" d="M107.7,168.2l0-1.2c0-0.5-0.4-1.2-1-1.2c-0.7,0-1,0.8-1,1.3l0.2,8.8c0,0.5,0.3,1.2,1.1,1.2
			c0.8,0,1.1-0.7,1.1-2l-0.1-2.3l-1.1,0l0-2.2l3-0.1l0.1,4.7c0,2.1-0.8,3.9-2.9,4c-2.3,0-3.1-1.8-3.1-3.3l-0.2-8.8
			c0-1.5,0.7-3.4,3-3.5c2.1,0,3,1.8,3.1,3.3l0,1.2L107.7,168.2z"/>
		<path id="XMLID_239_" class="st0" d="M116.8,176.2l0.2,2.2l-4.7,0.5l-1.5-15.1l2-0.2l1.3,13L116.8,176.2z"/>
		<path id="XMLID_241_" class="st0" d="M118.9,164.9l0.6,3.7l2-0.3l0.4,2.1l-2,0.3l0.8,4.9l3.1-0.5l0.4,2.1l-5.1,0.9l-2.5-15
			l4.8-0.8l0.4,2.1L118.9,164.9z"/>
		<path id="XMLID_243_" class="st0" d="M130.8,175.6l-3.4-5.5c-0.3,0.1-0.6,0.1-0.6,0.2l1.5,5.9l-2,0.5l-3.7-14.7l3.3-0.8
			c1.9-0.5,3.3,1.1,3.9,3.5c0.6,2.2,0.2,3.8-0.6,4.6l3.7,5.8L130.8,175.6z M126.2,168.1l0.6-0.2c1.3-0.3,1.6-0.6,1-2.8
			c-0.3-1.2-0.7-2-1.5-1.9l-1.3,0.3L126.2,168.1z"/>
		<path id="XMLID_246_" class="st0" d="M134.6,163l-0.2-0.6c-0.3-1-0.9-1.4-1.4-1.3c-0.5,0.2-0.7,0.8-0.5,1.4
			c0.2,0.6,0.5,1.1,1.1,1.6l2.9,2.3c1.2,0.9,1.9,1.5,2.5,3.2c0.7,2.1-0.2,3.7-1.7,4.2c-1.6,0.5-3.2-0.2-3.9-2.3l-0.5-1.5l1.9-0.7
			l0.5,1.3c0.3,0.9,0.8,1.2,1.3,1c0.5-0.2,0.7-0.8,0.4-1.6c-0.3-0.8-0.7-1.3-1.3-1.7l-2.4-1.6c-1.6-1.3-2.2-1.6-2.8-3.5
			c-0.7-1.9,0.1-3.6,1.7-4.2c1.6-0.6,3.2,0.3,3.9,2.2l0.3,1L134.6,163z"/>
		<path id="XMLID_248_" class="st0" d="M147.6,165.5l-1.8,0.9l1.2,3.4l-1.7,0.8l-4.5-14.7l1.8-0.9l8.7,12.6l-1.8,0.9L147.6,165.5z
			 M146.4,163.6l-2.9-4.6l0,0l1.8,5.2L146.4,163.6z"/>
		<path id="XMLID_251_" class="st0" d="M150.8,155.3l-0.3-0.5c-0.5-0.9-1.2-1.2-1.6-1c-0.4,0.3-0.5,0.9-0.2,1.5
			c0.3,0.6,0.7,0.9,1.4,1.3l3.3,1.6c1.3,0.7,2.2,1.1,3.1,2.7c1.1,1.9,0.5,3.6-0.9,4.5c-1.4,0.8-3.2,0.4-4.3-1.4l-0.8-1.4l1.8-1
			l0.7,1.2c0.5,0.8,1,1,1.5,0.7c0.4-0.3,0.5-0.9,0.1-1.7c-0.4-0.7-0.9-1.1-1.6-1.4l-2.6-1.1c-1.8-0.9-2.4-1.1-3.5-2.9
			c-1-1.8-0.7-3.5,0.8-4.4c1.5-0.9,3.2-0.3,4.3,1.4l0.5,0.9L150.8,155.3z"/>
		<path id="XMLID_253_" class="st0" d="M156.7,151.4l-0.4-0.5c-0.6-0.9-1.3-1.1-1.7-0.8c-0.4,0.3-0.5,0.9-0.1,1.5
			c0.4,0.5,0.7,0.9,1.5,1.2l3.5,1.4c1.4,0.5,2.3,0.9,3.3,2.4c1.3,1.8,0.8,3.6-0.5,4.5c-1.3,0.9-3.1,0.7-4.4-1.1l-0.9-1.3l1.7-1.2
			l0.8,1.2c0.5,0.8,1.1,0.9,1.5,0.6c0.4-0.3,0.5-0.9-0.1-1.7c-0.5-0.7-1-1-1.7-1.3l-2.7-0.9c-1.9-0.8-2.5-0.9-3.7-2.6
			c-1.2-1.7-0.9-3.5,0.5-4.5c1.4-1,3.2-0.6,4.4,1.1l0.6,0.9L156.7,151.4z"/>
		<path id="XMLID_255_" class="st0" d="M163.5,144.7l5.6,6.7c1,1.2,1.5,3.2-0.1,4.5c-1.7,1.4-3.5,0.5-4.5-0.7l-5.6-6.7
			c-1-1.2-1.6-3.1,0.2-4.5C160.6,142.7,162.5,143.5,163.5,144.7z M161.9,146c-0.3-0.3-1.1-0.8-1.5-0.4c-0.5,0.5-0.2,1.3,0,1.6
			l5.6,6.7c0.3,0.4,1.1,0.8,1.6,0.4c0.4-0.4,0.2-1.2-0.1-1.6L161.9,146z"/>
		<path id="XMLID_259_" class="st0" d="M168.2,141.8l-0.8-0.9c-0.3-0.3-1.1-0.6-1.5-0.2c-0.5,0.5-0.2,1.3,0.1,1.6l6.2,6.2
			c0.3,0.3,1.1,0.7,1.6,0.2c0.4-0.4,0.1-1.2-0.2-1.5l-0.8-0.9l1.5-1.4l0.8,0.9c1.1,1.1,1.7,3.1,0.3,4.5c-1.6,1.6-3.5,0.8-4.6-0.2
			l-6.2-6.3c-1.1-1.1-1.8-3-0.2-4.6c1.5-1.4,3.4-0.8,4.5,0.3l0.8,0.9L168.2,141.8z"/>
		<path id="XMLID_261_" class="st0" d="M180,144.9l-1.4,1.5l-11.3-10.1l1.4-1.5L180,144.9z"/>
		<path id="XMLID_263_" class="st0" d="M181.3,137.9l-1.2,1.5l2.5,2.5l-1.2,1.5l-10.5-11.2l1.3-1.6l13.4,7.6l-1.3,1.6L181.3,137.9z
			 M179.3,136.8l-4.7-2.9l0,0l3.9,3.9L179.3,136.8z"/>
		<path id="XMLID_266_" class="st0" d="M178.4,125.5l-1.2,1.7l10.7,7.4l-1.2,1.7l-10.7-7.4l-1.2,1.7l-1.8-1.2l3.5-5.1L178.4,125.5z"
			/>
		<path id="XMLID_268_" class="st0" d="M191.2,129.4l-1,1.7l-13-7.8l1-1.7L191.2,129.4z"/>
		<path id="XMLID_270_" class="st0" d="M184.5,116.6l7.8,4c1.4,0.7,2.6,2.4,1.7,4.2c-1,2-3.1,1.8-4.4,1.1l-7.8-4
			c-1.4-0.7-2.6-2.3-1.6-4.3C181.1,115.9,183.1,115.9,184.5,116.6z M183.6,118.4c-0.4-0.2-1.3-0.3-1.6,0.2c-0.3,0.6,0.3,1.3,0.6,1.5
			l7.8,4c0.4,0.2,1.3,0.3,1.6-0.3c0.3-0.5-0.3-1.2-0.7-1.4L183.6,118.4z"/>
		<path id="XMLID_273_" class="st0" d="M184.5,108.4l14,5.8l-0.8,1.9l-8.8-1.5l0,0l8,3.3l-0.8,1.9l-14-5.8l0.8-2l8.5,1.5l0,0
			l-7.8-3.2L184.5,108.4z"/>
	</g>
	<g id="XMLID_56_">
		<g>
			<g id="XMLID_558_">
				<path class="st0" d="M75.2,133.9h-1.5l-0.3,2.1h-1.5l1.8-8.8h1.6l1.8,8.8h-1.6L75.2,133.9z M74.9,132.6l-0.5-3.2h0l-0.5,3.2
					H74.9z"/>
			</g>
			<g id="XMLID_556_">
				<path class="st0" d="M83.5,127.2v8.8h-1.6l-1.6-5.1h0v5.1h-1.6v-8.8h1.7l1.5,4.9h0v-4.9H83.5z"/>
			</g>
			<g id="XMLID_554_">
				<path class="st0" d="M88.5,129.7V129c0-0.3-0.3-0.7-0.7-0.7c-0.6,0-0.8,0.5-0.8,0.7v5.1c0,0.3,0.2,0.7,0.8,0.7
					c0.6,0,0.9-0.4,0.9-1.1v-1.3h-0.9v-1.3h2.3v2.7c0,1.2-0.7,2.3-2.3,2.3c-1.8,0-2.4-1.1-2.4-2V129c0-0.9,0.6-2,2.4-2
					c1.6,0,2.3,1.1,2.3,2v0.7H88.5z"/>
			</g>
			<g id="XMLID_552_">
				<path class="st0" d="M95.5,134.7v1.3h-3.6v-8.8h1.6v7.6H95.5z"/>
			</g>
			<g id="XMLID_550_">
				<path class="st0" d="M98.8,128.4v2.2h1.6v1.3h-1.6v2.9h2.4v1.3h-4v-8.8h3.8v1.3H98.8z"/>
			</g>
			<g id="XMLID_547_">
				<path class="st0" d="M106.5,136l-1.5-3.6c-0.2,0-0.4,0-0.5,0v3.6h-1.6v-8.8h2.6c1.5,0,2.2,1.1,2.2,2.5c0,1.3-0.6,2.2-1.3,2.5
					l1.7,3.8H106.5z M104.5,131.1h0.5c1,0,1.3-0.1,1.3-1.4c0-0.7-0.2-1.3-0.8-1.3h-1V131.1z"/>
			</g>
			<g id="XMLID_545_">
				<path class="st0" d="M112.5,129.6v-0.4c0-0.6-0.3-1-0.7-1c-0.4,0-0.7,0.3-0.7,0.7c0,0.4,0.1,0.7,0.4,1.1l1.6,1.8
					c0.6,0.7,1,1.2,1,2.2c0,1.3-1.1,2-2.3,2c-1.3,0-2.3-0.7-2.3-2v-0.9h1.6v0.8c0,0.5,0.3,0.8,0.7,0.8c0.4,0,0.7-0.3,0.7-0.8
					c0-0.5-0.2-0.8-0.5-1.2l-1.3-1.3c-0.8-1-1.2-1.3-1.2-2.5c0-1.2,1-2,2.3-2c1.3,0,2.3,0.8,2.3,2v0.6H112.5z"/>
			</g>
			<g id="XMLID_543_">
				<path class="st0" d="M115.9,134.4h1.6v1.6h-1.6V134.4z"/>
			</g>
			<g id="XMLID_540_">
				<path class="st0" d="M124,129v5.1c0,0.9-0.7,2-2.3,2c-1.7,0-2.4-1.1-2.4-2V129c0-0.9,0.6-2,2.4-2C123.3,127,124,128.1,124,129z
					 M122.4,129c0-0.3-0.3-0.7-0.7-0.7c-0.6,0-0.8,0.5-0.8,0.7v5.1c0,0.3,0.2,0.8,0.8,0.8c0.5,0,0.7-0.5,0.7-0.8V129z"/>
			</g>
			<g id="XMLID_537_">
				<path class="st0" d="M129.4,136l-1.5-3.6c-0.2,0-0.4,0-0.5,0v3.6h-1.6v-8.8h2.6c1.5,0,2.2,1.1,2.2,2.5c0,1.3-0.6,2.2-1.3,2.5
					l1.7,3.8H129.4z M127.4,131.1h0.5c1,0,1.3-0.1,1.3-1.4c0-0.7-0.2-1.3-0.8-1.3h-1V131.1z"/>
			</g>
			<g id="XMLID_535_">
				<path class="st0" d="M135.6,129.7V129c0-0.3-0.3-0.7-0.7-0.7c-0.6,0-0.8,0.5-0.8,0.7v5.1c0,0.3,0.2,0.7,0.8,0.7
					c0.6,0,0.9-0.4,0.9-1.1v-1.3h-0.9v-1.3h2.3v2.7c0,1.2-0.7,2.3-2.3,2.3c-1.8,0-2.4-1.1-2.4-2V129c0-0.9,0.6-2,2.4-2
					c1.6,0,2.3,1.1,2.3,2v0.7H135.6z"/>
			</g>
		</g>
	</g>
	<g id="XMLID_1_">
		<g>
			<g id="XMLID_490_">
				<path class="st0" d="M80.7,31.3v2.4h1.8v1.4h-1.8v3.2h2.7v1.4H79v-9.8h4.2v1.4H80.7z"/>
			</g>
			<g id="XMLID_488_">
				<path class="st0" d="M88.5,32.6v-0.4c0-0.7-0.4-1.1-0.8-1.1c-0.4,0-0.8,0.3-0.8,0.8c0,0.4,0.1,0.7,0.5,1.2l1.8,2
					c0.7,0.8,1.1,1.3,1.1,2.5c0,1.4-1.2,2.2-2.6,2.2c-1.4,0-2.5-0.8-2.5-2.2v-1H87v0.9c0,0.6,0.3,0.9,0.8,0.9c0.4,0,0.8-0.3,0.8-0.9
					c0-0.5-0.2-0.9-0.6-1.3l-1.5-1.5c-0.9-1.1-1.3-1.4-1.3-2.7c0-1.3,1.1-2.2,2.6-2.2c1.5,0,2.5,0.9,2.5,2.2v0.7H88.5z"/>
			</g>
			<g id="XMLID_486_">
				<path class="st0" d="M97.5,31.2h-1.8v8.4h-1.8v-8.4h-1.8v-1.4h5.4V31.2z"/>
			</g>
			<g id="XMLID_484_">
				<path class="st0" d="M98.5,37.9h1.8v1.8h-1.8V37.9z"/>
			</g>
			<g id="XMLID_482_">
				<path class="st0" d="M106.2,29.9h1.8v9.8h-1.8v-8.4h-0.8v-1L106.2,29.9z"/>
			</g>
			<g id="XMLID_479_">
				<path class="st0" d="M110,33.7c0-0.1,0-1.2,0-1.4c0-1.5,1-2.6,2.8-2.6c1.8,0,2.6,1.2,2.6,2.2c0,0,0,4.7,0,4.9
					c0,1.6-1.1,2.9-2.7,2.9c-1.7,0-2.4-1.2-2.4-2.2v-0.8h1.7v0.8c0,0.4,0.3,0.8,0.8,0.8c0.7,0,0.9-0.7,0.9-1.5v-1.6
					c-0.2,0.3-0.6,0.5-1.2,0.5C110.8,35.9,110,34.8,110,33.7z M111.8,33.7c0,0.5,0.4,0.8,0.9,0.8c0.6,0,0.9-0.3,0.9-0.5v-2
					c0-0.3-0.3-0.8-0.8-0.8c-0.7,0-1,0.4-1,1.2C111.8,32.4,111.8,33.6,111.8,33.7z"/>
			</g>
			<g id="XMLID_475_">
				<path class="st0" d="M123,36.9c0,1.6-1.1,2.9-2.8,2.9c-1.7,0-2.9-1.3-2.9-2.9c0-1.4,0.7-2.1,1.6-2.5c-0.6-0.3-1.3-1.2-1.3-2.2
					c0-1.5,0.9-2.5,2.5-2.5c1.6,0,2.5,0.9,2.5,2.5c0,1-0.6,1.9-1.3,2.2C122.3,34.8,123,35.5,123,36.9z M121.2,36.9
					c0-0.9-0.2-1.6-1-1.8c-0.8,0.2-1.1,0.8-1.1,1.8c0,1,0.4,1.5,1.2,1.5C120.9,38.4,121.2,37.6,121.2,36.9z M119.3,32.3
					c0,0.5,0.2,1,0.9,1.2c0.6-0.2,0.8-0.7,0.8-1.2c0-0.7-0.3-1.2-0.8-1.2S119.3,31.6,119.3,32.3z"/>
			</g>
			<g id="XMLID_446_">
				<path class="st0" d="M130.3,35.8c0,0.1,0,1.2,0,1.4c0,1.5-1,2.6-2.8,2.6c-1.8,0-2.6-1.2-2.6-2.2c0,0,0-4.7,0-4.9
					c0-1.6,1-2.9,2.6-2.9c1.7,0,2.5,1.2,2.5,2.2v0.7h-1.7V32c0-0.4-0.3-0.8-0.8-0.8c-0.7,0-0.9,0.8-0.9,1.5v1.5
					c0.2-0.3,0.6-0.5,1.2-0.5C129.6,33.7,130.3,34.7,130.3,35.8z M128.5,35.8c0-0.5-0.4-0.8-0.9-0.8c-0.5,0-0.9,0.3-0.9,0.5v2
					c0,0.3,0.3,0.8,0.8,0.8c0.7,0,1-0.4,1-1.2C128.5,37.1,128.5,36,128.5,35.8z"/>
			</g>
		</g>
	</g>
	<g id="XMLID_194_">
		<circle id="XMLID_197_" class="st0" cx="104.8" cy="14.1" r="3.9"/>
		
			<ellipse id="XMLID_195_" transform="matrix(0.7714 -0.6364 0.6364 0.7714 15.9964 68.262)" class="st0" cx="103" cy="11.9" rx="0.8" ry="0.5"/>
	</g>
	<g id="XMLID_191_">
		<circle id="XMLID_193_" class="st0" cx="82.6" cy="19.3" r="3.9"/>
		
			<ellipse id="XMLID_192_" transform="matrix(0.7714 -0.6364 0.6364 0.7714 7.6274 55.3439)" class="st0" cx="80.8" cy="17.1" rx="0.8" ry="0.5"/>
	</g>
	<g id="XMLID_188_">
		<circle id="XMLID_190_" class="st0" cx="126.2" cy="19.3" r="3.9"/>
		
			<ellipse id="XMLID_189_" transform="matrix(0.7714 -0.6364 0.6364 0.7714 17.5876 83.0683)" class="st0" cx="124.4" cy="17.1" rx="0.8" ry="0.5"/>
	</g>
	<ellipse id="XMLID_187_" class="st0" cx="82.6" cy="20.6" rx="2" ry="1"/>
	<ellipse id="XMLID_186_" class="st0" cx="104.8" cy="15.5" rx="2" ry="1"/>
	<ellipse id="XMLID_185_" class="st0" cx="126.2" cy="20.6" rx="2" ry="1"/>
	<path id="XMLID_40_" class="st3" d="M116.9,70c0,0-2.8-1.5-4.3-1.6c0,0-11.1-10.6-13.7-12c0,0-6.7,11-9.7,11.9c0,0-0.8,1,2.7,1.3
		c0,0,3.3,0,3.6,0.4c0,0,1.2,0.4,1.1,1.1"/>
	<path id="XMLID_37_" class="st4" d="M69.3,72.5c0,0-5-3.1-12.8-3.5c0,0-2.3,0.5-4.2,4.3c0,0,0,0.7,1.2,1.3"/>
	<path id="XMLID_11_" class="st3" d="M49,90.7c-1.5-0.2-13.2,4.7-13.2,4.7C12.2,110.2,3,108,3,108c0-5,8.9-19.2,8.9-19.2
		c4.7-5.8,1.9-9.6,1.9-9.6C3.4,57.7,4.7,57.5,4.7,57.5c5.8-0.1,27.9,10.1,27.9,10.1c3.8,2.1,10.5,4.7,10.5,4.7l5.1,2
		c1.5,0.8,13.2,0.5,13.2,0.5c23.6-6.8,94.1-6.3,94.1-6.3l7.8,0.6c0,0,30.4,3.7,35.1,11.9c0,0-7.2,3.8-11.5,7.8c0,0,6.1-0.7,7.5-1
		l5.3-0.4c0,0,0.4,0.4-7.7,6.3c0,0-5.5,2.8-12.5,4.8l-7.3,1.6c-6,1.5-11.7,4.4-16.8,5.4c0,0-14.7,3-39,1.3
		C92,105,99.7,104,80.6,99.3S61,92.6,49,90.7z"/>
	<path id="XMLID_12_" class="st0" d="M116.3,100.4c0,0-3.6,15.2-10.3,17.4c0,0-3-3-5.1-8.4c-0.7-1.9-1.3-4-1.7-6.4
		c0,0,0.3-2.4,2.3-2.6c0,0,3.2,1.1,4.7,0"/>
	<path id="XMLID_5_" class="st3" d="M76.5,97.1c0,0-4,6.3-9.8,10.1c0,0-2.8,3-4.1,2.7c-0.7-0.2-0.3-2.2-0.1-4.9c0,0-1.6-5.2-5.4-8.7
		c0,0-1.8-1.5,0-2.3c0,0,0.4,0.1,5-1"/>
	<polygon id="XMLID_338_" class="st1" points="95.9,129.6 103.6,129.6 103.6,129.6 95.9,129.6 	"/>
	<g id="XMLID_294_">
		<path class="st0" d="M38.8,95"/>
	</g>
	<g id="XMLID_114_">
		<path class="st0" d="M38.8,69.6"/>
	</g>
	<g id="XMLID_173_">
		<line class="st0" x1="7.7" y1="65.5" x2="29.4" y2="72.8"/>
		<polygon class="st5" points="8,64.6 29.4,72.8 7.4,66.5 		"/>
	</g>
	<g id="XMLID_170_">
		<line class="st0" x1="12.2" y1="75.7" x2="23.8" y2="77"/>
		<polygon class="st5" points="12.3,74.7 23.8,77 12.1,76.7 		"/>
	</g>
	<g id="XMLID_167_">
		<line class="st0" x1="13.7" y1="86.2" x2="23.8" y2="84"/>
		<polygon class="st5" points="13.4,85.2 23.8,84 13.9,87.2 		"/>
	</g>
	<g id="XMLID_164_">
		<line class="st0" x1="10.5" y1="91.9" x2="27.4" y2="88.1"/>
		<polygon class="st5" points="10.2,90.9 27.4,88.1 10.7,92.8 		"/>
	</g>
	<g id="XMLID_161_">
		<line class="st0" x1="6.6" y1="98.1" x2="28.4" y2="90.8"/>
		<polygon class="st5" points="6.3,97.2 28.4,90.8 6.9,99.1 		"/>
	</g>
	<g id="XMLID_158_">
		<line class="st0" x1="3.6" y1="103.7" x2="28.2" y2="95"/>
		<polygon class="st5" points="3.2,102.7 28.2,95 3.9,104.6 		"/>
	</g>
	<path id="XMLID_157_" class="st0" d="M185.9,78.9c0-0.4-0.2-0.8-0.6-0.8c-0.1,0-0.5-0.2-0.7-0.2c-0.3-0.1-0.7-0.1-1,0
		c-0.2,0-1,0.3-1.1,0.4c-0.6,0.3-0.6,0.4-1,1c-0.2,0.4-0.1,1.2,0.3,1.4c0.9,0.4,1.4,1.1,2.4,0.9c0.3,0,0.7-0.1,0.9-0.4
		c0.3-0.3,0.4-0.6,0.5-0.9c0.1-0.3,0.1-0.3,0.2-0.6"/>
	<path id="XMLID_22_" class="st6" d="M43.2,91.9c0,0,4.6-6.3,44.9,9.8c0,0-0.8-0.1,11.1,3.3"/>
	<path id="XMLID_9_" class="st7" d="M114.4,106.6c5.6,0.2,16.6,0.6,24.3,0.5c0,0,1.6,0,4.2-0.1"/>
	<g id="XMLID_20_">
		<path class="st0" d="M158.3,96.1c0,0-10.3-1.2-14.2,7.6c0,0-1.5,6.1-5.5,8c0,0,12.6-3.5,16.7-6.3c0,0,4.6-5.2,6.3-6.5"/>
		<path class="st5" d="M158.3,96.2c-1.4-0.1-2.9,0.1-4.2,0.3c-1.4,0.3-2.7,0.8-4,1.4c-1.2,0.6-2.3,1.5-3.3,2.5c-1,1-1.6,2.2-2.2,3.5
			l0-0.1c-0.2,0.9-0.5,1.7-0.8,2.5c-0.3,0.8-0.7,1.6-1.1,2.3c-0.9,1.5-2.1,2.9-3.8,3.8l-0.6-1.5c2.8-0.9,5.6-1.9,8.4-2.9
			c1.4-0.5,2.8-1,4.1-1.6c1.4-0.5,2.7-1.1,3.9-1.8l-0.1,0.1c1.1-1.1,2.2-2.2,3.3-3.2c0.6-0.5,1.1-1,1.7-1.5c0.6-0.5,1.2-1,1.9-1.4
			c0,0,0.1,0,0.1,0c0,0,0,0.1,0,0.1c-1.1,1.1-2,2.3-2.9,3.5l-2.8,3.5c0,0-0.1,0.1-0.1,0.1l-0.1,0c-1.3,1-2.7,1.6-4.1,2.3
			c-1.4,0.6-2.8,1.2-4.2,1.7c-1.4,0.5-2.9,0.9-4.3,1.3c-1.4,0.4-2.9,0.8-4.3,1.2l0,0c-0.4,0.1-0.9-0.2-1-0.6
			c-0.1-0.4,0.1-0.8,0.4-0.9c0.7-0.3,1.3-0.7,1.8-1.2c0.5-0.5,1-1.1,1.5-1.8c0.4-0.7,0.8-1.4,1.1-2.1c0.3-0.7,0.6-1.5,0.8-2.2l0-0.1
			l0,0c0.7-1.3,1.5-2.6,2.6-3.7c1.1-1.1,2.3-1.9,3.6-2.5c1.3-0.6,2.8-1,4.2-1.2c1.4-0.2,2.9-0.3,4.3-0.1c0.1,0,0.1,0.1,0.1,0.1
			C158.4,96.2,158.4,96.2,158.3,96.2L158.3,96.2z"/>
	</g>
	<g id="XMLID_18_">
		<path class="st0" d="M116.9,70c0,0-2.8-1.5-4.3-1.6c0,0-11.1-10.6-13.7-12c0,0-6.7,11-9.7,11.9c0,0-0.8,1,2.7,1.3
			c0,0,3.3,0,3.6,0.4c0,0,1.2,0.4,1.1,1.1"/>
		<path class="st5" d="M116.9,70c-0.7-0.3-1.4-0.5-2.2-0.7c-0.4-0.1-0.7-0.2-1.1-0.3c-0.4-0.1-0.7-0.1-1-0.1l-0.1,0l-0.1-0.1
			c-2.4-1.9-4.7-3.9-7-5.9c-1.2-1-2.3-2-3.5-2.9c-1.1-0.9-2.4-2-3.5-2.7l1.3-0.4c-0.7,1.1-1.4,2.2-2.1,3.3c-0.7,1.1-1.5,2.1-2.3,3.2
			c-0.8,1-1.6,2.1-2.5,3c-0.5,0.5-0.9,1-1.5,1.4c-0.5,0.4-1.1,0.9-1.9,1.1l0.3-0.2c0.1-0.1,0.1-0.2,0-0.3c0-0.1,0,0,0,0
			c0.1,0.1,0.3,0.2,0.6,0.3c0.5,0.2,1,0.2,1.6,0.3l0,0c0.6,0,1.2,0.1,1.9,0.2c0.3,0,0.6,0.1,0.9,0.2c0.2,0,0.3,0.1,0.5,0.1
			c0.2,0.1,0.3,0.1,0.5,0.3l-0.1-0.1c0.3,0.1,0.5,0.3,0.7,0.5c0.2,0.2,0.4,0.5,0.3,0.8c0-0.3-0.2-0.5-0.4-0.6
			c-0.2-0.1-0.5-0.2-0.7-0.3l-0.1-0.1c0,0-0.2-0.1-0.3-0.1c-0.1,0-0.3,0-0.4,0c-0.3,0-0.6,0-0.9,0c-0.6,0-1.2,0-1.8,0.1l0,0
			c-0.6,0-1.2-0.1-1.8-0.2c-0.3-0.1-0.6-0.1-1-0.3c-0.2-0.1-0.4-0.3-0.5-0.6c-0.1-0.3-0.1-0.8,0.1-1.1l0.1-0.1l0.2-0.1
			c0.4-0.2,0.9-0.5,1.3-1c0.4-0.4,0.8-0.9,1.2-1.4c0.8-1,1.6-2,2.3-3c0.7-1,1.5-2.1,2.2-3.2c0.7-1.1,1.4-2.2,2.1-3.2l0.5-0.9
			l0.8,0.5c1.5,0.9,2.5,1.9,3.7,2.9c1.1,1,2.3,2.1,3.4,3.1c2.2,2.1,4.4,4.3,6.4,6.5l-0.3-0.1c0.4,0,0.8,0.2,1.2,0.3
			c0.4,0.1,0.7,0.3,1.1,0.5C115.6,69.2,116.3,69.6,116.9,70z"/>
	</g>
	<g id="XMLID_146_">
		<line class="st0" x1="111.8" y1="69.7" x2="99.6" y2="59.4"/>
		<path class="st5" d="M111.5,70L99.6,59.4l12.5,9.9c0.2,0.2,0.3,0.5,0.1,0.7C112,70.2,111.7,70.2,111.5,70
			C111.5,70.1,111.5,70.1,111.5,70z"/>
	</g>
	<g id="XMLID_143_">
		<line class="st0" x1="107" y1="69.6" x2="98.8" y2="62.3"/>
		<path class="st5" d="M106.7,70l-7.9-7.7l8.5,6.9c0.2,0.2,0.2,0.5,0.1,0.7C107.2,70.2,106.9,70.2,106.7,70
			C106.7,70,106.7,70,106.7,70z"/>
	</g>
	<g id="XMLID_140_">
		<line class="st0" x1="102.7" y1="69.2" x2="97.5" y2="65"/>
		<path class="st5" d="M102.4,69.6L97.5,65l5.5,3.9c0.2,0.2,0.3,0.5,0.1,0.7C103,69.8,102.7,69.8,102.4,69.6
			C102.4,69.7,102.4,69.6,102.4,69.6z"/>
	</g>
	<g id="XMLID_137_">
		<line class="st0" x1="99" y1="69.8" x2="94.8" y2="66.5"/>
		<path class="st5" d="M98.7,70.2l-3.9-3.7l4.5,2.9c0.2,0.1,0.3,0.5,0.2,0.7S99,70.4,98.7,70.2C98.8,70.3,98.7,70.2,98.7,70.2z"/>
	</g>
	<g id="XMLID_16_">
		<path class="st0" d="M69.3,72.5c0,0-5-3.1-12.8-3.5c0,0-2.3,0.5-4.2,4.3c0,0,0,0.7,1.2,1.3"/>
		<path class="st8" d="M69.3,72.5c-2.2-0.7-4.3-1.2-6.4-1.6c-1.1-0.2-2.1-0.4-3.2-0.5c-1.1-0.2-2.2-0.3-3.2-0.4l0.3,0
			c-0.1,0-0.3,0.1-0.5,0.2c-0.2,0.1-0.4,0.2-0.6,0.3c-0.4,0.2-0.7,0.5-1.1,0.9c-0.3,0.3-0.7,0.7-1,1.1c-0.3,0.4-0.6,0.8-0.9,1.2
			l0-0.2c0,0,0,0.1,0,0.2c0,0.1,0.1,0.2,0.1,0.4c0.1,0.2,0.3,0.5,0.5,0.7c-0.3-0.1-0.6-0.2-0.9-0.4c-0.2-0.1-0.3-0.2-0.4-0.4
			c-0.1-0.2-0.2-0.3-0.3-0.6l0,0l0.1-0.2c0.2-0.5,0.4-1,0.6-1.5c0.3-0.5,0.5-1,0.9-1.4c0.3-0.5,0.7-0.9,1.2-1.2
			c0.2-0.2,0.5-0.4,0.7-0.5c0.3-0.2,0.5-0.3,0.9-0.4l0.1,0l0.2,0c1.2,0,2.3,0.1,3.4,0.3c1.1,0.2,2.3,0.5,3.3,0.8
			c1.1,0.4,2.2,0.8,3.2,1.3C67.5,71.1,68.5,71.7,69.3,72.5z"/>
	</g>
	<path id="XMLID_133_" class="st0" d="M152.8,75.3c0-0.1-0.1-0.1-0.1-0.2c0-0.3-0.2-0.5-0.4-0.6c0,0-0.4-0.1-0.5-0.1
		c-0.2-0.1-0.5-0.1-0.7,0c-0.1,0-0.7,0.2-0.8,0.3c-0.4,0.2-0.6,0.5-0.8,1c-0.2,0.2-0.2,0.6,0.1,0.8c0.6,0.3,1.3,0.7,2,0.5
		c0.2,0,0.5-0.1,0.6-0.3c0.2-0.2,0.3-0.4,0.3-0.7c0.1-0.2,0.1-0.2,0.1-0.4C152.7,75.7,152.8,75.4,152.8,75.3z"/>
	<path id="XMLID_132_" class="st0" d="M138.4,75.4c0,0,0-0.1-0.1-0.1c0-0.2-0.1-0.3-0.3-0.4c0,0-0.2-0.1-0.3-0.1c-0.1,0-0.3,0-0.4,0
		c-0.1,0-0.4,0.1-0.5,0.2c-0.2,0.1-0.4,0.3-0.5,0.6c-0.1,0.2-0.1,0.4,0,0.5c0.4,0.2,0.8,0.4,1.2,0.3c0.1,0,0.3-0.1,0.4-0.2
		c0.1-0.1,0.2-0.2,0.2-0.4c0.1-0.1,0.1-0.1,0.1-0.2C138.4,75.7,138.5,75.5,138.4,75.4z"/>
	<path id="XMLID_131_" class="st0" d="M64.2,72.1c0,0,0-0.1-0.1-0.1c0-0.2-0.1-0.3-0.3-0.4c0,0-0.2-0.1-0.3-0.1c-0.1,0-0.3,0-0.4,0
		c-0.1,0-0.4,0.1-0.5,0.2c-0.3,0.1-0.4,0.3-0.5,0.6c-0.1,0.2-0.1,0.4,0,0.5c0.4,0.2,0.8,0.4,1.2,0.3c0.1,0,0.3-0.1,0.4-0.2
		c0.1-0.1,0.2-0.2,0.2-0.4c0.1-0.1,0.1-0.1,0.1-0.2C64.1,72.4,64.2,72.2,64.2,72.1z"/>
	<path id="XMLID_130_" class="st0" d="M56.3,73.1C56.3,73.1,56.3,73.1,56.3,73.1c-0.1-0.2-0.1-0.3-0.2-0.3c0,0-0.1,0-0.2-0.1
		c-0.1,0-0.2,0-0.3,0c-0.1,0-0.3,0.1-0.3,0.1c-0.2,0.1-0.2,0.2-0.3,0.4c-0.1,0.1-0.1,0.2,0,0.3c0.2,0.1,0.5,0.3,0.8,0.2
		c0.1,0,0.2,0,0.2-0.1c0.1-0.1,0.1-0.2,0.1-0.3c0-0.1,0-0.1,0.1-0.2C56.3,73.3,56.3,73.2,56.3,73.1z"/>
	<path id="XMLID_129_" class="st0" d="M59.3,71.1C59.3,71.1,59.3,71.1,59.3,71.1c0-0.1-0.1-0.2-0.2-0.2c0,0-0.1,0-0.1,0
		c-0.1,0-0.1,0-0.2,0c0,0-0.2,0.1-0.2,0.1c-0.1,0.1-0.2,0.2-0.2,0.3c0,0.1-0.1,0.2,0,0.2c0.2,0.1,0.4,0.2,0.6,0.2
		c0.1,0,0.1,0,0.2-0.1c0.1-0.1,0.1-0.1,0.1-0.2C59.2,71.3,59.2,71.3,59.3,71.1C59.3,71.3,59.3,71.2,59.3,71.1z"/>
	<path id="XMLID_8_" class="st9" d="M155.3,105.4c5.1-1,10.7-3.9,16.8-5.4l7.3-1.6c7-2,12.5-4.8,12.5-4.8c8.1-5.8,7.7-6.3,7.7-6.3
		l-5.3,0.4c-1.4,0.4-7.5,1-7.5,1c4.2-4,11.5-7.8,11.5-7.8c-4.6-8.2-35.1-11.9-35.1-11.9l-7.8-0.6c0,0-70.5-0.5-94.1,6.3
		c0,0-11.7,0.3-13.2-0.5l-5.1-2c0,0-6.6-2.6-10.5-4.7c0,0-22.2-10.3-27.9-10.1c0,0-1.3,0.1,9.2,21.7c0,0,2.8,3.8-1.9,9.6
		c0,0-8.9,14.2-8.9,19.2c0,0,9.2,2.2,32.8-12.6c0,0,11.7-5,13.2-4.7"/>
	<path id="XMLID_127_" class="st10" d="M192.2,86.6"/>
	<path id="XMLID_126_" class="st1" d="M143.1,80.9c0,0,0-0.1-0.1-0.1c0-0.2-0.1-0.3-0.3-0.4c0,0-0.2-0.1-0.3-0.1c-0.1,0-0.3,0-0.4,0
		c-0.1,0-0.4,0.1-0.5,0.2c-0.2,0.1-0.4,0.3-0.5,0.6c-0.1,0.2-0.1,0.4,0,0.5c0.4,0.2,0.8,0.4,1.2,0.3c0.1,0,0.3-0.1,0.4-0.2
		c0.1-0.1,0.2-0.2,0.2-0.4c0.1-0.1,0.1-0.1,0.1-0.2C143,81.2,143.1,81,143.1,80.9z"/>
	<path id="XMLID_125_" class="st1" d="M109.1,76.8c0,0,0-0.1-0.1-0.1c0-0.2-0.1-0.3-0.3-0.4c0,0-0.2-0.1-0.3-0.1c-0.1,0-0.3,0-0.4,0
		c-0.1,0-0.4,0.1-0.5,0.2c-0.2,0.1-0.4,0.3-0.5,0.6c-0.1,0.2-0.1,0.4,0,0.5c0.4,0.2,0.8,0.4,1.2,0.3c0.1,0,0.3-0.1,0.4-0.2
		c0.1-0.1,0.2-0.2,0.2-0.4c0.1-0.1,0.1-0.1,0.1-0.2C109,77,109.1,76.8,109.1,76.8z"/>
	<path id="XMLID_124_" class="st1" d="M74.2,78.8c0-0.1-0.1-0.1-0.1-0.2c0-0.3-0.2-0.5-0.4-0.6c0,0-0.4-0.1-0.5-0.1
		c-0.2-0.1-0.5-0.1-0.7,0c-0.1,0-0.7,0.2-0.8,0.3c-0.4,0.2-0.6,0.5-0.8,1c-0.2,0.2-0.2,0.6,0.1,0.8c0.6,0.3,1.3,0.7,2,0.5
		c0.2,0,0.5-0.1,0.6-0.3c0.2-0.2,0.3-0.4,0.3-0.7c0.1-0.2,0.1-0.2,0.1-0.4C74.1,79.2,74.3,78.8,74.2,78.8z"/>
	<path id="XMLID_123_" class="st1" d="M77.7,87.7c0-0.1-0.1-0.1-0.1-0.2c0-0.3-0.2-0.5-0.4-0.6c0,0-0.4-0.1-0.5-0.1
		c-0.2-0.1-0.5-0.1-0.7,0c-0.1,0-0.7,0.2-0.8,0.3c-0.4,0.2-0.6,0.5-0.8,1c-0.2,0.2-0.2,0.6,0.1,0.8c0.6,0.3,1.3,0.7,2,0.5
		c0.2,0,0.5-0.1,0.6-0.3c0.2-0.2,0.3-0.4,0.3-0.7c0.1-0.2,0.1-0.2,0.1-0.4C77.6,88.1,77.8,87.8,77.7,87.7z"/>
	<path id="XMLID_122_" class="st1" d="M85,80.9c0,0,0-0.1-0.1-0.1c0-0.2-0.1-0.3-0.3-0.4c0,0-0.2-0.1-0.3-0.1c-0.1,0-0.3,0-0.4,0
		c-0.1,0-0.4,0.1-0.5,0.2c-0.2,0.1-0.4,0.3-0.5,0.6c-0.1,0.2-0.1,0.4,0,0.5c0.4,0.2,0.8,0.4,1.2,0.3c0.1,0,0.3-0.1,0.4-0.2
		c0.1-0.1,0.2-0.2,0.2-0.4c0.1-0.1,0.1-0.1,0.1-0.2C84.9,81.2,85,81,85,80.9z"/>
	<path id="XMLID_121_" class="st1" d="M98.7,74.7C98.7,74.7,98.6,74.7,98.7,74.7c-0.1-0.2-0.1-0.3-0.2-0.3c0,0-0.2,0-0.2-0.1
		c-0.1,0-0.2,0-0.3,0c-0.1,0-0.3,0.1-0.3,0.1c-0.2,0.1-0.3,0.2-0.4,0.4c-0.1,0.1-0.1,0.3,0,0.3c0.3,0.1,0.6,0.3,0.9,0.2
		c0.1,0,0.2,0,0.3-0.1c0.1-0.1,0.1-0.2,0.1-0.3c0-0.1,0-0.1,0.1-0.2C98.6,74.9,98.7,74.7,98.7,74.7z"/>
	<path id="XMLID_120_" class="st1" d="M120.2,80.2C120.2,80.2,120.1,80.2,120.2,80.2c-0.1-0.2-0.1-0.3-0.2-0.3c0,0-0.2,0-0.2-0.1
		c-0.1,0-0.2,0-0.3,0c-0.1,0-0.3,0.1-0.3,0.1c-0.2,0.1-0.3,0.2-0.4,0.4c-0.1,0.1-0.1,0.3,0,0.3c0.3,0.1,0.6,0.3,0.9,0.2
		c0.1,0,0.2,0,0.3-0.1c0.1-0.1,0.1-0.2,0.1-0.3c0-0.1,0-0.1,0.1-0.2C120.1,80.4,120.2,80.3,120.2,80.2z"/>
	<path id="XMLID_119_" class="st1" d="M150.6,81.8C150.6,81.8,150.6,81.8,150.6,81.8c-0.1-0.2-0.1-0.3-0.2-0.3c0,0-0.2,0-0.2-0.1
		c-0.1,0-0.2,0-0.3,0c-0.1,0-0.3,0.1-0.3,0.1c-0.2,0.1-0.3,0.2-0.4,0.4c-0.1,0.1-0.1,0.3,0,0.3c0.3,0.1,0.6,0.3,0.9,0.2
		c0.1,0,0.2,0,0.3-0.1c0.1-0.1,0.1-0.2,0.1-0.3c0-0.1,0-0.1,0.1-0.2C150.5,82,150.6,81.9,150.6,81.8z"/>
	<path id="XMLID_118_" class="st0" d="M191,85.9c0,0-4.2,4.2-5.6,3.5c0,0,7.4,4,15.4-2.8L191,85.9z"/>
	<g id="XMLID_115_">
		<path class="st0" d="M190.4,82.1c0,0-10.3,4.8-10,7.2c0,0,0.4,3.1,6.9-1.5"/>
		<path class="st5" d="M190.5,82.1c-1.5,0.8-3,1.7-4.5,2.6c-1.4,0.9-2.9,1.8-4.1,3c-0.3,0.3-0.6,0.6-0.7,0.9
			c-0.2,0.3-0.3,0.6-0.1,0.7c0.2,0.5,1,0.5,1.7,0.3c1.5-0.4,3.1-1.2,4.6-2l0.1,0.1c-1.3,1.2-2.7,2.3-4.4,2.8
			c-0.5,0.1-0.9,0.2-1.5,0.1c-0.5-0.1-1.1-0.4-1.4-1c-0.1-0.1-0.1-0.3-0.1-0.5c0-0.2,0-0.3,0-0.5c0.1-0.3,0.2-0.5,0.3-0.7
			c0.3-0.4,0.6-0.7,1-1c1.4-1.2,2.9-2,4.4-2.8C187.3,83.5,188.8,82.7,190.5,82.1L190.5,82.1z"/>
	</g>
	<g id="XMLID_112_">
		<path class="st0" d="M166.3,74.4c0,0-14.5,15.5,0.8,24c0,0,1.5,2.5,4,2"/>
		<path class="st5" d="M166.4,74.5c-1.5,1.8-2.7,3.9-3.7,6c-1,2.1-1.7,4.3-1.8,6.6c-0.1,2.2,0.5,4.4,1.8,6.2
			c1.3,1.7,2.9,3.2,4.9,4.5l0.2,0.2l0.1,0.1c0.1,0.2,0.3,0.6,0.5,0.8c0.2,0.3,0.5,0.5,0.7,0.7c0.3,0.2,0.6,0.4,0.9,0.5
			c0.3,0.1,0.7,0.2,1.1,0.2l0,0.2c-0.4,0.1-0.8,0.3-1.3,0.3c-0.4,0-0.9-0.1-1.3-0.3c-0.4-0.2-0.8-0.4-1.2-0.7c-0.4-0.3-0.7-0.6-1-1
			l0.3,0.3c-2.2-1-4.4-2.6-5.7-4.8c-1.4-2.2-1.8-4.9-1.5-7.4c0.3-2.5,1.2-4.8,2.5-6.9c1.2-2.1,2.7-4,4.4-5.7L166.4,74.5z"/>
	</g>
	<g id="XMLID_109_">
		<path class="st0" d="M168.8,79.7c0,0-4,9.2,2.2,14.2c0,0,4.4,1.8,5.6,1c0,0,0.5-6.1-2.3-7.5c0,0-0.7-3.3,0-5.3"/>
		<path class="st5" d="M168.9,79.7c-0.4,1.2-0.7,2.5-0.8,3.7c-0.2,1.3-0.2,2.5,0,3.8c0.2,1.2,0.5,2.4,1.1,3.5
			c0.6,1.1,1.4,1.9,2.3,2.7l-0.2-0.1c0.9,0.3,1.8,0.6,2.7,0.8c0.4,0.1,0.9,0.2,1.3,0.2c0.4,0,0.9-0.1,0.8-0.1l-0.4,0.7
			c0-0.6,0-1.3-0.1-1.9c0-0.6-0.1-1.3-0.2-1.9c-0.2-1.2-0.6-2.4-1.4-2.9l-0.4-0.3l0-0.3c-0.1-0.5-0.1-0.9-0.1-1.4c0-0.5,0-0.9,0-1.4
			c0.1-0.9,0.3-1.9,0.7-2.7l0.2,0.1c-0.1,0.9,0,1.7,0.1,2.6c0.1,0.4,0.2,0.8,0.2,1.3c0.1,0.4,0.2,0.8,0.3,1.2l-0.4-0.5
			c0.8,0.4,1.4,1.1,1.8,1.8c0.4,0.7,0.7,1.4,0.8,2.2c0.2,0.7,0.3,1.5,0.3,2.2c0,0.7,0,1.4-0.1,2.2l-0.1,0.5l-0.4,0.2
			c-0.4,0.2-0.8,0.3-1.1,0.3c-0.3,0-0.6,0-0.9-0.1c-0.5-0.1-1-0.2-1.5-0.3c-1-0.3-1.9-0.6-2.8-1l-0.1-0.1l-0.1-0.1
			c-1-0.9-1.9-2-2.5-3.3c-0.6-1.3-0.9-2.6-1-3.9c-0.1-1.3,0.1-2.7,0.4-3.9c0.3-1.3,0.7-2.5,1.2-3.7L168.9,79.7z"/>
	</g>
	<path id="XMLID_108_" class="st11" d="M13.7,86.2"/>
	<path id="XMLID_107_" class="st11" d="M9.6,94"/>
	<g id="XMLID_104_">
		<path class="st0" d="M186.1,82.1c0,0-5.6,1.6-6.7-1.8"/>
		<path class="st5" d="M186.1,82.2c-0.5,0.4-1.2,0.6-1.8,0.8c-0.7,0.1-1.3,0-2-0.1c-0.7-0.1-1.3-0.4-1.9-0.8c-0.5-0.4-0.9-1-1-1.7
			l0.1,0c0.3,0.6,0.7,1,1.2,1.3c0.5,0.3,1.1,0.4,1.7,0.4c0.6,0,1.2-0.1,1.8-0.1C184.8,82,185.4,82,186.1,82.2L186.1,82.2z"/>
	</g>
	<g id="XMLID_13_">
		<path class="st0" d="M116.3,100.4c0,0-3.6,15.2-10.3,17.4c0,0-3-3-5.1-8.4c-0.7-1.9-1.3-4-1.7-6.4c0,0,0.3-2.4,2.3-2.6
			c0,0,3.2,1.1,4.7,0"/>
		<path class="st5" d="M116.3,100.4c-0.2,1.7-0.6,3.4-1.1,5.1c-0.5,1.7-1,3.4-1.8,5c-0.7,1.6-1.5,3.2-2.7,4.7
			c-1.1,1.4-2.5,2.9-4.5,3.5l-0.6,0.2l-0.4-0.4c-1.1-1.1-1.9-2.2-2.6-3.4c-0.8-1.2-1.4-2.5-2-3.8c-0.6-1.3-1-2.6-1.4-4
			c-0.3-1.4-0.6-2.8-0.7-4.2l0-0.1l0-0.1c0.1-0.4,0.2-0.7,0.3-1c0.1-0.3,0.3-0.6,0.6-0.9c0.2-0.3,0.5-0.5,0.9-0.7
			c0.3-0.2,0.7-0.2,1.1-0.3l0.1,0l0.1,0c0.7,0.3,1.5,0.5,2.2,0.6c0.8,0.1,1.6,0.2,2.3-0.2c-0.6,0.5-1.5,0.7-2.3,0.7
			c-0.8,0-1.6-0.1-2.5-0.3l0.2,0c-0.5,0.1-0.9,0.4-1.2,0.8c-0.1,0.2-0.2,0.4-0.3,0.7c-0.1,0.2-0.1,0.5-0.2,0.7l0-0.2
			c0.5,2.6,1.4,5.2,2.5,7.6c0.6,1.2,1.2,2.4,1.9,3.5c0.7,1.1,1.5,2.2,2.4,3.1l-1-0.2c1.4-0.4,2.6-1.5,3.6-2.8c0.5-0.6,1-1.3,1.5-2
			c0.5-0.7,0.9-1.4,1.3-2.2C113.8,106.9,115.1,103.7,116.3,100.4z"/>
	</g>
	<path id="XMLID_102_" class="st12" d="M103.8,105.6"/>
	<g id="XMLID_99_">
		<path class="st0" d="M104.1,115.5c0,0,5.5-4.9,6.4-8.4"/>
		<path class="st5" d="M103.8,115.2c1.3-1.1,2.6-2.3,3.8-3.6c0.6-0.7,1.2-1.3,1.7-2.1c0.5-0.7,1-1.5,1.2-2.3c-0.2,0.9-0.6,1.7-1,2.5
			c-0.4,0.8-0.9,1.5-1.5,2.2c-1.1,1.4-2.3,2.8-3.5,4.1c-0.2,0.2-0.5,0.2-0.7,0C103.5,115.7,103.5,115.4,103.8,115.2
			C103.7,115.2,103.7,115.2,103.8,115.2L103.8,115.2z"/>
	</g>
	<g id="XMLID_96_">
		<path class="st0" d="M100.9,109.4c0,0,3.5,0.9,6.8-3.8"/>
		<path class="st5" d="M101.1,108.9c0.5,0.1,1.2,0.1,1.8,0c0.6-0.1,1.3-0.4,1.8-0.7c0.6-0.3,1.1-0.7,1.6-1.2
			c0.3-0.2,0.5-0.5,0.7-0.7l0.7-0.8l-0.6,0.9c-0.2,0.3-0.4,0.5-0.7,0.8c-0.5,0.5-1,1-1.6,1.4c-0.6,0.4-1.2,0.7-1.9,1
			c-0.7,0.2-1.4,0.3-2.2,0.2L101.1,108.9z"/>
	</g>
	<g id="XMLID_10_">
		<path class="st0" d="M76.5,97.1c0,0-4,6.3-9.8,10.1c0,0-2.8,3-4.1,2.7c-0.7-0.2-0.3-2.2-0.1-4.9c0,0-1.6-5.2-5.4-8.7
			c0,0-1.8-1.5,0-2.3c0,0,0.4,0.1,5-1"/>
		<path class="st5" d="M76.5,97.1c-1.1,2.1-2.4,4.1-4,5.9c-0.8,0.9-1.6,1.8-2.5,2.6c-0.9,0.8-1.8,1.6-2.8,2.3l0.2-0.1
			c-0.6,0.7-1.2,1.3-1.9,1.8c-0.4,0.3-0.7,0.6-1.2,0.8c-0.2,0.1-0.5,0.2-0.7,0.3c-0.3,0.1-0.6,0.2-1.2,0.1c-0.4-0.1-0.7-0.4-0.8-0.6
			c-0.1-0.2-0.2-0.4-0.2-0.6c-0.1-0.3-0.1-0.6-0.1-0.8c0-0.5,0-0.9,0.1-1.3c0.1-0.8,0.2-1.7,0.2-2.5l0,0.4c-0.3-1-0.7-2-1.2-2.9
			c-0.5-1-1-1.9-1.6-2.8c-0.6-0.9-1.2-1.7-1.9-2.5c-0.1-0.1-0.2-0.2-0.3-0.3c-0.1-0.1-0.2-0.2-0.3-0.4c-0.2-0.3-0.4-0.6-0.5-1
			c-0.1-0.4-0.1-1,0.2-1.3c0.3-0.3,0.6-0.5,0.9-0.6l0.4,0c-0.1,0-0.1,0-0.1,0c0,0,0,0,0,0l0.1,0l0.1,0l0.3,0l0.6-0.1l1.3-0.1
			l2.5-0.3c-0.8,0.3-1.6,0.6-2.4,0.8c-0.4,0.1-0.8,0.2-1.2,0.4l-0.6,0.2l-0.3,0.1l-0.2,0l-0.1,0l-0.1,0c0,0,0,0-0.2,0l0.4,0
			c-0.2,0.1-0.4,0.3-0.4,0.4c0,0.1,0,0.2,0,0.3c0.1,0.1,0.2,0.3,0.3,0.4c0.1,0.1,0.2,0.1,0.2,0.2c0.1,0.1,0.2,0.2,0.3,0.3
			c0.9,0.8,1.7,1.6,2.4,2.5c0.7,0.9,1.3,1.9,1.9,2.9c0.5,1,1,2,1.4,3.2l0.1,0.2l0,0.2c-0.1,0.9-0.1,1.7-0.2,2.5
			c0,0.4-0.1,0.8-0.1,1.2c0,0.2,0,0.3,0,0.4c0,0,0,0.1,0,0c0-0.1-0.2-0.2-0.3-0.2c-0.1,0,0,0,0.1,0c0.1,0,0.3-0.1,0.4-0.2
			c0.3-0.2,0.6-0.4,0.9-0.6c0.6-0.5,1.2-1,1.8-1.6l0.1-0.1l0.1,0c1.9-1.2,3.7-2.7,5.4-4.3C73.3,100.5,75,98.8,76.5,97.1z"/>
	</g>
	<g id="XMLID_90_">
		<line class="st0" x1="58.3" y1="97.5" x2="62.1" y2="96.1"/>
		<polygon class="st5" points="58,96.6 62.1,96.1 58.6,98.4 		"/>
	</g>
	<path id="XMLID_89_" class="st13" d="M61.2,101.4"/>
	<g id="XMLID_82_">
		<line class="st0" x1="61.2" y1="101.4" x2="67.5" y2="98.3"/>
		<polygon class="st5" points="60.8,100.5 67.5,98.3 61.6,102.3 		"/>
	</g>
	<g id="XMLID_76_">
		<line class="st0" x1="62.3" y1="105" x2="70.6" y2="99.9"/>
		<polygon class="st5" points="61.7,104.1 70.6,99.9 62.8,105.8 		"/>
	</g>
	<g id="XMLID_73_">
		<path class="st0" d="M44.7,91.9c0,0,12-6.4,19.7-5.3"/>
		<path class="st5" d="M44.2,91c1.6-0.7,3.2-1.4,4.9-2c1.6-0.6,3.3-1.1,5-1.5c1.7-0.4,3.4-0.8,5.1-1c1.7-0.2,3.5-0.2,5.2,0.1
			c-1.7-0.1-3.4,0.1-5.1,0.4c-1.7,0.3-3.3,0.9-4.9,1.4c-1.6,0.6-3.2,1.3-4.7,2c-1.5,0.7-3.1,1.5-4.5,2.3L44.2,91z"/>
	</g>
	<g id="XMLID_69_">
		<path class="st0" d="M66.4,90.7c0,0,61.2,13.1,75.6,7.7"/>
		<path class="st5" d="M66.4,90.7l9.4,1.6c3.1,0.6,6.3,1.1,9.4,1.6c6.3,1,12.6,2.1,18.9,2.9c6.3,0.9,12.6,1.7,18.9,2.2
			c3.2,0.3,6.3,0.4,9.5,0.4c3.2,0,6.4-0.1,9.4-1c-3,1.1-6.2,1.4-9.4,1.5c-3.2,0.1-6.4,0-9.6-0.1c-6.4-0.3-12.7-1.1-19-2
			c-6.3-0.9-12.6-1.9-18.9-3.1C78.9,93.5,72.6,92.2,66.4,90.7z"/>
	</g>
	<g id="XMLID_6_">
		<path class="st0" d="M144.4,103.7c0,0,7.5-5.6,13.5-4.1"/>
		<path class="st5" d="M144,103.1c1.1-0.7,2.1-1.3,3.3-1.8c1.1-0.5,2.3-1,3.4-1.3c1.2-0.3,2.4-0.6,3.6-0.7c1.2-0.1,2.5,0,3.6,0.3
			c-2.4-0.4-4.8,0.2-7,1.1c-1.1,0.5-2.1,1-3.2,1.6c-1,0.6-2,1.3-2.9,2l0,0c-0.3,0.3-0.8,0.2-1.1-0.1
			C143.5,103.9,143.6,103.4,144,103.1C143.9,103.2,143.9,103.2,144,103.1z"/>
	</g>
	<g id="XMLID_3_">
		<path class="st0" d="M142,108.6c0,0,9.3-5.2,10.8-4.8"/>
		<path class="st5" d="M141.6,107.9c1.8-0.9,3.6-1.7,5.5-2.5c0.9-0.4,1.8-0.8,2.8-1.1c0.5-0.2,0.9-0.3,1.4-0.5
			c0.5-0.1,1-0.3,1.5-0.2c-0.5,0-1,0.2-1.4,0.4c-0.5,0.2-0.9,0.4-1.3,0.6c-0.9,0.4-1.7,0.9-2.6,1.4c-1.7,1-3.4,2-5.1,3.1l0,0
			c-0.3,0.2-0.8,0.1-1-0.2C141.1,108.7,141.2,108.2,141.6,107.9C141.6,108,141.6,107.9,141.6,107.9z"/>
	</g>
	<path id="XMLID_2_" class="st0" d="M41.6,89c0-0.1-0.1-0.1-0.1-0.2c0-0.3-0.2-0.5-0.4-0.6c0,0-0.4-0.1-0.5-0.1
		c-0.2-0.1-0.5-0.1-0.7,0c-0.1,0-0.7,0.2-0.8,0.3c-0.4,0.2-0.6,0.5-0.8,1c-0.2,0.2-0.2,0.6,0.1,0.8c0.6,0.3,1.3,0.7,2,0.5
		c0.2,0,0.5-0.1,0.6-0.3c0.2-0.2,0.3-0.4,0.3-0.7c0.1-0.2,0.1-0.2,0.1-0.4C41.5,89.4,41.7,89.1,41.6,89z"/>
	<g id="XMLID_303_">
		<path class="st0" d="M179.4,72.1c0,0-3.2,3-2.8,5.3"/>
		<path class="st5" d="M179.5,72.1c0,0.7-0.1,1.2-0.4,1.7c-0.2,0.5-0.7,0.7-1,1c-0.3,0.4-0.6,0.7-0.9,1.1c-0.3,0.4-0.4,0.8-0.5,1.4
			l-0.2,0c-0.3-0.5-0.3-1.1-0.2-1.7c0.1-0.6,0.2-1.1,0.5-1.7c0.2-0.5,0.3-1.1,0.8-1.5c0.5-0.3,1-0.6,1.8-0.6L179.5,72.1z"/>
	</g>
	<path id="XMLID_113_" class="st0" d="M173.2,74.5c0,0,0-0.1-0.1-0.1c0-0.2-0.1-0.3-0.3-0.4c0,0-0.2-0.1-0.3-0.1c-0.1,0-0.3,0-0.4,0
		c-0.1,0-0.4,0.1-0.5,0.2c-0.2,0.1-0.4,0.3-0.5,0.6c-0.1,0.2-0.1,0.4,0,0.5c0.4,0.2,0.8,0.4,1.2,0.3c0.1,0,0.3-0.1,0.4-0.2
		c0.1-0.1,0.2-0.2,0.2-0.4c0.1-0.1,0.1-0.1,0.1-0.2C173.1,74.7,173.2,74.6,173.2,74.5z"/>
	<g id="XMLID_160_">
		<path class="st0" d="M56.4,73.3c0,0-17.1,5.4-25,3.4"/>
		<path class="st5" d="M56.5,73.4c-1.9,1-3.9,1.7-6,2.3c-2.1,0.6-4.2,0.9-6.3,1.2c-2.1,0.3-4.3,0.5-6.4,0.6c-2.1,0-4.3-0.1-6.4-0.7
			l0-0.1c2.1,0.4,4.2,0.3,6.3,0.1c2.1-0.2,4.2-0.5,6.2-1c2.1-0.4,4.1-1,6.2-1.4c2.1-0.4,4.2-0.8,6.3-1L56.5,73.4z"/>
	</g>
	<path id="XMLID_4_" class="st0" d="M49.7,80.2c0,0,0-0.1-0.1-0.1c0-0.2-0.1-0.3-0.3-0.4c0,0-0.2-0.1-0.3-0.1c-0.1,0-0.3,0-0.4,0
		c-0.1,0-0.4,0.1-0.5,0.2c-0.3,0.1-0.4,0.3-0.5,0.6c-0.1,0.2-0.1,0.4,0,0.5c0.4,0.2,0.8,0.4,1.2,0.3c0.1,0,0.3-0.1,0.4-0.2
		c0.1-0.1,0.2-0.2,0.2-0.4c0.1-0.1,0.1-0.1,0.1-0.2C49.7,80.5,49.8,80.3,49.7,80.2z"/>
</g>
</svg>
