<?xml version="1.0" encoding="utf-8"?>
<!-- Generator: Adobe Illustrator 23.0.1, SVG Export Plug-In . SVG Version: 6.00 Build 0)  -->
<svg version="1.1" id="instagram" xmlns="http://www.w3.org/2000/svg" xmlns:xlink="http://www.w3.org/1999/xlink" x="0px" y="0px"
	 viewBox="0 0 203.5 203.4" style="enable-background:new 0 0 203.5 203.4;" xml:space="preserve">
<style type="text/css">
	.st0{fill:#00A651;}
	.st1{fill:#FFFFFF;}
</style>
<g id="Object">
	<path class="st0" d="M154.1,203.4H49.3c-27.2,0-49.3-22-49.3-49.2c0,0,0,0,0-0.1V49.3C0,22.1,22,0,49.2,0c0,0,0,0,0.1,0h104.9
		c27.2,0,49.3,22,49.3,49.2c0,0,0,0,0,0.1v104.9C203.4,181.4,181.3,203.4,154.1,203.4z"/>
	<path class="st1" d="M140.7,21.2h-78c-22.9,0-41.5,18.6-41.5,41.5v78c0,22.9,18.6,41.5,41.5,41.5h78c22.9,0,41.5-18.6,41.5-41.5
		v-78C182.2,39.8,163.6,21.2,140.7,21.2z M168.1,140.7c0,15.1-12.2,27.3-27.3,27.3h-78c-15.1,0-27.3-12.2-27.3-27.3v-78
		c0-15.1,12.2-27.3,27.3-27.3h78c15.1,0,27.3,12.2,27.3,27.3V140.7z"/>
	<path class="st1" d="M101.7,60.6C79,60.6,60.6,79,60.6,101.7s18.4,41.1,41.1,41.1s41.1-18.4,41.1-41.1l0,0
		C142.8,79,124.4,60.6,101.7,60.6z M101.7,128.7c-14.9,0-27-12.1-27-27s12.1-27,27-27s27,12.1,27,27S116.6,128.7,101.7,128.7z"/>
	<circle class="st1" cx="146.1" cy="59.5" r="8"/>
</g>
</svg>
