<?xml version="1.0" encoding="utf-8"?>
<!-- Generator: Adobe Illustrator 23.0.1, SVG Export Plug-In . SVG Version: 6.00 Build 0)  -->
<svg version="1.1" id="Layer_1" xmlns="http://www.w3.org/2000/svg" xmlns:xlink="http://www.w3.org/1999/xlink" x="0px" y="0px"
	 viewBox="0 0 203.5 203.4" style="enable-background:new 0 0 203.5 203.4;" xml:space="preserve">
<style type="text/css">
	.st0{fill:#00A651;}
	.st1{fill:#FFFFFF;}
</style>
<title>Artboard 3</title>
<g id="Object">
	<path class="st0" d="M154.2,203.4H49.3c-27.2,0-49.3-22-49.3-49.2c0,0,0,0,0-0.1V49.3C0,22.1,22,0,49.2,0c0,0,0,0,0.1,0h104.9
		c27.2,0,49.3,22,49.3,49.2c0,0,0,0,0,0.1v104.9C203.5,181.4,181.4,203.4,154.2,203.4L154.2,203.4z"/>
	<path class="st1" d="M160.7,52.3c0,0-10.1,6.2-16.1,6.2c0,0-4.5-7.6-17.6-8.1s-20.3,8.2-23.7,13.2S99.9,79.9,101,82
		c0,0-32.2,0.4-53.3-26.7c0,0-11.3,20,8.1,33.8c-4.1,0-8.1-0.9-11.8-2.7c0,0-0.1,19.8,20.4,25.3c0,0-6.2,2.2-11.2,0.6
		c0,0,3.6,15.7,23.3,17.7c0,0-11.6,12.6-37.2,10.6c0,0,36,27.7,77.9,1.2c37.3-23.6,34.5-66,34.5-66s9.8-6.3,12.6-13
		c-4.6,1.7-9.4,2.9-14.3,3.7C150.1,66.4,161,57.6,160.7,52.3z"/>
</g>
</svg>
