<?xml version="1.0" encoding="utf-8"?>
<!-- Generator: Adobe Illustrator 23.0.1, SVG Export Plug-In . SVG Version: 6.00 Build 0)  -->
<svg version="1.1" id="Layer_1" xmlns="http://www.w3.org/2000/svg" xmlns:xlink="http://www.w3.org/1999/xlink" x="0px" y="0px"
	 viewBox="0 0 203.5 203.4" style="enable-background:new 0 0 203.5 203.4;" xml:space="preserve">
<style type="text/css">
	.st0{fill:#00A651;}
	.st1{fill:#FFFFFF;}
</style>
<title>Artboard 1</title>
<g id="Object">
	<path class="st0" d="M154.1,203.4H49.3c-27.2,0-49.3-22-49.3-49.2c0,0,0,0,0-0.1V49.3C0,22.1,22,0,49.2,0c0,0,0,0,0.1,0h104.9
		c27.2,0,49.3,22,49.3,49.2c0,0,0,0,0,0.1v104.9C203.4,181.4,181.3,203.4,154.1,203.4z"/>
	<path class="st1" d="M170.4,98.5h-26.1V82.7c0-5.7,4.6-10.4,10.4-10.4l0,0h15.7V39.1H152c-22.6,0-40.9,18.3-40.9,40.9l0,0v18.5
		H94.9v28.1h16.2v76.8h33.2v-76.8h26.1L170.4,98.5z"/>
</g>
</svg>
