<svg id="waterline" xmlns="http://www.w3.org/2000/svg" viewBox="0 0 542.1 16"><defs><style>.cls-1{fill:none;stroke:#00a651;stroke-miterlimit:10;stroke-width:6px;}</style></defs><title>waterline</title><g id="waterline-2" data-name="waterline"><path class="cls-1" d="M10,20.8c13.6,0,13.6,10,27.1,10s13.6-10,27.1-10,13.6,10,27.1,10,13.6-10,27.1-10,13.6,10,27.1,10,13.6-10,27.1-10,13.6,10,27.1,10,13.6-10,27.1-10,13.6,10,27.1,10,13.6-10,27.1-10,13.6,10,27.2,10,13.5-10,27.1-10,13.5,10,27.1,10,13.5-10,27.1-10,13.5,10,27.1,10,13.5-10,27.1-10,13.5,10,27.1,10,13.5-10,27.1-10,13.6,10,27.1,10,13.6-10,27.1-10" transform="translate(-10 -17.8)"/></g></svg>